<?xml version="1.0" standalone="no"?>
<!DOCTYPE svg PUBLIC "-//W3C//DTD SVG 20010904//EN"
 "http://www.w3.org/TR/2001/REC-SVG-20010904/DTD/svg10.dtd">
<svg version="1.0" xmlns="http://www.w3.org/2000/svg"
 width="512.000000pt" height="512.000000pt" viewBox="0 0 512.000000 512.000000"
 preserveAspectRatio="xMidYMid meet">
<metadata>
Created by potrace 1.11, written by Peter Selinger 2001-2013
</metadata>
<g transform="translate(0.000000,512.000000) scale(0.100000,-0.100000)"
fill="#000000" stroke="none">
<path d="M2059 4960 c-4 -16 -3 -1023 1 -1029 3 -4 51 -23 108 -43 85 -29 102
-32 103 -19 0 9 1 210 2 446 l2 430 1265 0 1265 0 0 -1030 0 -1030 -1265 0
-1265 0 -2 55 c-1 30 -2 70 -2 88 -1 29 -4 32 -34 32 -18 0 -60 7 -92 15 -33
8 -67 17 -75 19 -14 3 -16 -23 -15 -208 l0 -211 1483 -3 c1182 -2 1482 0 1483
10 0 17 0 2415 0 2453 l-1 30 -1480 0 c-814 0 -1481 -2 -1481 -5z"/>
<path d="M1121 4769 c-69 -9 -165 -60 -218 -115 -23 -24 -56 -73 -74 -109 -51
-104 -48 -230 6 -336 50 -95 168 -187 265 -205 155 -28 303 31 393 158 56 79
77 146 73 240 -4 118 -59 221 -159 294 -87 64 -178 87 -286 73z"/>
<path d="M1653 3781 c-9 -6 -99 -141 -237 -356 -88 -137 -101 -155 -106 -155
-3 0 -6 61 -5 135 l1 135 -106 0 -105 0 0 -144 c1 -156 4 -149 -45 -89 -61 74
-206 249 -210 253 -3 3 -32 38 -64 78 -32 39 -66 72 -75 72 -49 -2 -281 -179
-281 -216 0 -7 -4 -14 -8 -16 -13 -5 -60 -92 -81 -149 -17 -45 -44 -141 -56
-199 -2 -8 -29 -121 -60 -250 -31 -129 -58 -244 -60 -255 -3 -11 -19 -78 -36
-148 -17 -71 -32 -136 -34 -145 -2 -10 -22 -93 -45 -187 -43 -178 -45 -221
-14 -273 35 -60 120 -91 190 -69 74 22 82 38 232 437 194 514 181 481 182 445
2 -53 8 -225 14 -415 4 -102 8 -246 11 -320 7 -210 15 -440 20 -615 3 -88 7
-221 10 -295 3 -74 7 -209 10 -300 13 -420 14 -430 36 -475 35 -70 99 -108
182 -106 54 1 97 20 138 62 35 35 48 83 54 191 12 201 15 260 20 373 3 66 8
152 10 190 2 39 7 126 10 195 4 69 8 150 10 180 2 30 7 125 11 210 7 167 20
220 23 93 1 -44 4 -92 5 -108 2 -17 7 -91 10 -165 4 -74 8 -166 11 -205 6
-100 15 -244 21 -365 3 -58 7 -134 9 -170 2 -36 7 -123 10 -195 7 -144 23
-197 72 -240 50 -43 117 -58 180 -40 90 27 137 88 147 191 3 27 8 139 11 249
3 110 8 238 10 285 3 47 7 150 10 230 3 80 7 206 10 280 3 74 7 191 10 260 3
69 7 188 10 265 3 77 8 186 10 241 2 56 7 177 10 270 3 93 8 205 10 249 6 133
18 488 18 517 l-1 26 72 -20 c349 -97 394 -108 445 -108 90 0 110 8 462 178
81 39 198 96 260 126 151 72 176 97 184 179 9 90 -70 177 -161 177 -33 0 -335
-94 -419 -130 -11 -4 -63 -23 -116 -40 l-96 -32 -134 47 c-74 25 -141 48 -149
50 -8 2 -73 25 -145 50 -138 48 -297 87 -312 76z"/>
<path d="M1099 3767 c-4 -36 -4 -114 -1 -124 3 -9 33 -13 106 -13 l103 0 -1
73 -1 72 -102 2 c-73 1 -103 -2 -104 -10z"/>
<path d="M4290 1915 c-113 -20 -199 -75 -260 -168 -128 -191 -67 -439 134
-552 146 -81 310 -63 444 50 44 37 98 123 116 185 77 265 -163 533 -434 485z"/>
<path d="M2603 1901 c-104 -38 -182 -111 -235 -219 -20 -40 -23 -63 -23 -152
0 -95 3 -110 27 -155 14 -27 38 -66 52 -85 35 -46 135 -114 192 -130 49 -14
149 -17 198 -7 56 12 136 59 185 107 124 126 151 293 70 450 -38 75 -96 131
-176 171 -57 28 -79 34 -152 36 -66 3 -98 -1 -138 -16z"/>
<path d="M2629 946 c-2 -2 -33 -6 -69 -10 -98 -10 -129 -16 -195 -40 -150 -54
-254 -136 -327 -257 -42 -69 -82 -185 -81 -234 1 -16 2 -80 3 -140 l2 -110
762 0 761 0 5 63 c15 194 -5 307 -78 426 -94 156 -273 263 -487 291 -60 8
-290 17 -296 11z"/>
<path d="M4195 939 c-33 -5 -76 -11 -95 -13 -54 -8 -159 -45 -225 -79 -83 -44
-183 -146 -227 -232 -59 -115 -69 -164 -64 -317 2 -73 5 -135 5 -138 1 -4
1504 -5 1521 -1 3 0 6 63 7 139 2 101 -1 151 -13 192 -47 162 -161 299 -306
368 -84 40 -169 67 -243 77 -76 10 -300 13 -360 4z"/>
</g>
</svg>
